<svg xmlns="http://www.w3.org/2000/svg" xmlns:xlink="http://www.w3.org/1999/xlink" viewBox="0 0 512 512" width="512" height="512" preserveAspectRatio="xMidYMid meet" style="width: 100%; height: 100%; transform: translate3d(0px, 0px, 0px); content-visibility: visible;"><defs><clipPath id="__lottie_element_62"><rect width="512" height="512" x="0" y="0"/></clipPath><clipPath id="__lottie_element_64"><path d="M0,0 L640,0 L640,640 L0,640z"/></clipPath><radialGradient id="__lottie_element_85" spreadMethod="pad" gradientUnits="userSpaceOnUse" cx="0" cy="0" r="61.640698130300606" fx="0" fy="0"><stop offset="0%" stop-color="rgb(255,255,255)"/><stop offset="50%" stop-color="rgb(255,255,255)"/><stop offset="100%" stop-color="rgb(255,255,255)"/></radialGradient><mask id="__lottie_element_87"><path fill="url(#__lottie_element_86)" d=" M65.11499786376953,0 C65.11499786376953,35.96200180053711 35.96200180053711,65.11499786376953 0,65.11499786376953 C-35.96200180053711,65.11499786376953 -65.11499786376953,35.96200180053711 -65.11499786376953,0 C-65.11499786376953,-35.96200180053711 -35.96200180053711,-65.11499786376953 0,-65.11499786376953 C35.96200180053711,-65.11499786376953 65.11499786376953,-35.96200180053711 65.11499786376953,0z"/></mask><radialGradient id="__lottie_element_86" spreadMethod="pad" gradientUnits="userSpaceOnUse" cx="0" cy="0" r="61.640698130300606" fx="0" fy="0"><stop stop-color="rgb(255,255,255)" offset="0%" stop-opacity="1"/><stop stop-color="rgb(255,255,255)" offset="50%" stop-opacity="0.5"/><stop stop-color="rgb(255,255,255)" offset="100%" stop-opacity="0"/><stop stop-color="rgb(255,255,255)" offset="100%" stop-opacity="0.5"/><stop stop-color="rgb(255,255,255)" offset="100%" stop-opacity="1"/></radialGradient><radialGradient id="__lottie_element_263" spreadMethod="pad" gradientUnits="userSpaceOnUse" cx="0" cy="0" r="61.640698130300606" fx="0" fy="0"><stop offset="0%" stop-color="rgb(255,255,255)"/><stop offset="50%" stop-color="rgb(255,247,203)"/><stop offset="100%" stop-color="rgb(255,238,152)"/></radialGradient><mask id="__lottie_element_265"><path fill="url(#__lottie_element_264)" d=" M65.11499786376953,0 C65.11499786376953,35.96200180053711 35.96200180053711,65.11499786376953 0,65.11499786376953 C-35.96200180053711,65.11499786376953 -65.11499786376953,35.96200180053711 -65.11499786376953,0 C-65.11499786376953,-35.96200180053711 -35.96200180053711,-65.11499786376953 0,-65.11499786376953 C35.96200180053711,-65.11499786376953 65.11499786376953,-35.96200180053711 65.11499786376953,0z"/></mask><radialGradient id="__lottie_element_264" spreadMethod="pad" gradientUnits="userSpaceOnUse" cx="0" cy="0" r="61.640698130300606" fx="0" fy="0"><stop stop-color="rgb(255,255,255)" offset="0%" stop-opacity="1"/><stop stop-color="rgb(255,255,255)" offset="50%" stop-opacity="0.5"/><stop stop-color="rgb(255,255,255)" offset="100%" stop-opacity="0"/><stop stop-color="rgb(255,255,255)" offset="100%" stop-opacity="0.5"/><stop stop-color="rgb(255,255,255)" offset="100%" stop-opacity="1"/></radialGradient><radialGradient id="__lottie_element_269" spreadMethod="pad" gradientUnits="userSpaceOnUse" cx="0" cy="0" r="61.640698130300606" fx="0" fy="0"><stop offset="0%" stop-color="rgb(205,251,255)"/><stop offset="50%" stop-color="rgb(205,251,255)"/><stop offset="100%" stop-color="rgb(205,251,255)"/></radialGradient><mask id="__lottie_element_271"><path fill="url(#__lottie_element_270)" d=" M65.11499786376953,0 C65.11499786376953,35.96200180053711 35.96200180053711,65.11499786376953 0,65.11499786376953 C-35.96200180053711,65.11499786376953 -65.11499786376953,35.96200180053711 -65.11499786376953,0 C-65.11499786376953,-35.96200180053711 -35.96200180053711,-65.11499786376953 0,-65.11499786376953 C35.96200180053711,-65.11499786376953 65.11499786376953,-35.96200180053711 65.11499786376953,0z"/></mask><radialGradient id="__lottie_element_270" spreadMethod="pad" gradientUnits="userSpaceOnUse" cx="0" cy="0" r="61.640698130300606" fx="0" fy="0"><stop stop-color="rgb(255,255,255)" offset="0%" stop-opacity="1"/><stop stop-color="rgb(255,255,255)" offset="50%" stop-opacity="0.5"/><stop stop-color="rgb(255,255,255)" offset="100%" stop-opacity="0"/><stop stop-color="rgb(255,255,255)" offset="100%" stop-opacity="0.5"/><stop stop-color="rgb(255,255,255)" offset="100%" stop-opacity="1"/></radialGradient></defs><g clip-path="url(#__lottie_element_62)"><g clip-path="url(#__lottie_element_64)" transform="matrix(0.800000011920929,0,0,0.800000011920929,0,0)" opacity="1" style="display: block;"><g transform="matrix(0.08035329729318619,0,0,0.08035329729318619,106.41300201416016,90.46900177001953)" opacity="0.00023243038186848252" style="display: none;"><g opacity="1" transform="matrix(1,0,0,1,0,0)"><path fill="rgb(255,255,255)" fill-opacity="1" d=" M0,-26.971487045288086 C0,-26.971487045288086 2.2908785343170166,-2.2908785343170166 2.2908785343170166,-2.2908785343170166 C2.2908785343170166,-2.2908785343170166 26.971487045288086,0 26.971487045288086,0 C26.971487045288086,0 2.2908785343170166,2.2908785343170166 2.2908785343170166,2.2908785343170166 C2.2908785343170166,2.2908785343170166 0,26.971487045288086 0,26.971487045288086 C0,26.971487045288086 -2.2908785343170166,2.2908785343170166 -2.2908785343170166,2.2908785343170166 C-2.2908785343170166,2.2908785343170166 -26.971487045288086,0 -26.971487045288086,0 C-26.971487045288086,0 -2.2908785343170166,-2.2908785343170166 -2.2908785343170166,-2.2908785343170166 C-2.2908785343170166,-2.2908785343170166 0,-26.971487045288086 0,-26.971487045288086z"/><path stroke-linecap="round" stroke-linejoin="round" fill-opacity="0" stroke="rgb(255,255,255)" stroke-opacity="1" stroke-width="3.3287202502681987" d=" M0,-26.971487045288086 C0,-26.971487045288086 2.2908785343170166,-2.2908785343170166 2.2908785343170166,-2.2908785343170166 C2.2908785343170166,-2.2908785343170166 26.971487045288086,0 26.971487045288086,0 C26.971487045288086,0 2.2908785343170166,2.2908785343170166 2.2908785343170166,2.2908785343170166 C2.2908785343170166,2.2908785343170166 0,26.971487045288086 0,26.971487045288086 C0,26.971487045288086 -2.2908785343170166,2.2908785343170166 -2.2908785343170166,2.2908785343170166 C-2.2908785343170166,2.2908785343170166 -26.971487045288086,0 -26.971487045288086,0 C-26.971487045288086,0 -2.2908785343170166,-2.2908785343170166 -2.2908785343170166,-2.2908785343170166 C-2.2908785343170166,-2.2908785343170166 0,-26.971487045288086 0,-26.971487045288086z"/></g></g><g transform="matrix(0.05017632991075516,0,0,0.05017632991075516,501.3139953613281,428.468994140625)" opacity="0.00018561096598716632" style="display: none;"><g opacity="1" transform="matrix(1,0,0,1,0,0)"><path fill="rgb(255,255,255)" fill-opacity="1" d=" M0,-26.966175079345703 C0,-26.966175079345703 2.2883989810943604,-2.2883989810943604 2.2883989810943604,-2.2883989810943604 C2.2883989810943604,-2.2883989810943604 26.966175079345703,0 26.966175079345703,0 C26.966175079345703,0 2.2883989810943604,2.2883989810943604 2.2883989810943604,2.2883989810943604 C2.2883989810943604,2.2883989810943604 0,26.966175079345703 0,26.966175079345703 C0,26.966175079345703 -2.2883989810943604,2.2883989810943604 -2.2883989810943604,2.2883989810943604 C-2.2883989810943604,2.2883989810943604 -26.966175079345703,0 -26.966175079345703,0 C-26.966175079345703,0 -2.2883989810943604,-2.2883989810943604 -2.2883989810943604,-2.2883989810943604 C-2.2883989810943604,-2.2883989810943604 0,-26.966175079345703 0,-26.966175079345703z"/><path stroke-linecap="round" stroke-linejoin="round" fill-opacity="0" stroke="rgb(255,255,255)" stroke-opacity="1" stroke-width="3.3269781286294355" d=" M0,-26.966175079345703 C0,-26.966175079345703 2.2883989810943604,-2.2883989810943604 2.2883989810943604,-2.2883989810943604 C2.2883989810943604,-2.2883989810943604 26.966175079345703,0 26.966175079345703,0 C26.966175079345703,0 2.2883989810943604,2.2883989810943604 2.2883989810943604,2.2883989810943604 C2.2883989810943604,2.2883989810943604 0,26.966175079345703 0,26.966175079345703 C0,26.966175079345703 -2.2883989810943604,2.2883989810943604 -2.2883989810943604,2.2883989810943604 C-2.2883989810943604,2.2883989810943604 -26.966175079345703,0 -26.966175079345703,0 C-26.966175079345703,0 -2.2883989810943604,-2.2883989810943604 -2.2883989810943604,-2.2883989810943604 C-2.2883989810943604,-2.2883989810943604 0,-26.966175079345703 0,-26.966175079345703z"/></g></g><g transform="matrix(0.10030820220708847,0,0,0.10030820220708847,73.5530014038086,418.7770080566406)" opacity="0.00016221044157077813" style="display: none;"><g opacity="1" transform="matrix(1,0,0,1,0,0)"><path fill="rgb(255,255,255)" fill-opacity="1" d=" M0,-26.027807235717773 C0,-26.027807235717773 1.8504459857940674,-1.8504459857940674 1.8504459857940674,-1.8504459857940674 C1.8504459857940674,-1.8504459857940674 26.027807235717773,0 26.027807235717773,0 C26.027807235717773,0 1.8504459857940674,1.8504459857940674 1.8504459857940674,1.8504459857940674 C1.8504459857940674,1.8504459857940674 0,26.027807235717773 0,26.027807235717773 C0,26.027807235717773 -1.8504459857940674,1.8504459857940674 -1.8504459857940674,1.8504459857940674 C-1.8504459857940674,1.8504459857940674 -26.027807235717773,0 -26.027807235717773,0 C-26.027807235717773,0 -1.8504459857940674,-1.8504459857940674 -1.8504459857940674,-1.8504459857940674 C-1.8504459857940674,-1.8504459857940674 0,-26.027807235717773 0,-26.027807235717773z"/><path stroke-linecap="round" stroke-linejoin="round" fill-opacity="0" stroke="rgb(255,255,255)" stroke-opacity="1" stroke-width="3.019282872473653" d=" M0,-26.027807235717773 C0,-26.027807235717773 1.8504459857940674,-1.8504459857940674 1.8504459857940674,-1.8504459857940674 C1.8504459857940674,-1.8504459857940674 26.027807235717773,0 26.027807235717773,0 C26.027807235717773,0 1.8504459857940674,1.8504459857940674 1.8504459857940674,1.8504459857940674 C1.8504459857940674,1.8504459857940674 0,26.027807235717773 0,26.027807235717773 C0,26.027807235717773 -1.8504459857940674,1.8504459857940674 -1.8504459857940674,1.8504459857940674 C-1.8504459857940674,1.8504459857940674 -26.027807235717773,0 -26.027807235717773,0 C-26.027807235717773,0 -1.8504459857940674,-1.8504459857940674 -1.8504459857940674,-1.8504459857940674 C-1.8504459857940674,-1.8504459857940674 0,-26.027807235717773 0,-26.027807235717773z"/></g></g><g transform="matrix(0.10105590522289276,0,0,0.10105590522289276,518.3489990234375,261.69000244140625)" opacity="0.0005557404477029593" style="display: none;"><g opacity="1" transform="matrix(1,0,0,1,0,0)"><path fill="rgb(255,255,255)" fill-opacity="1" d=" M0,-32.38777160644531 C0,-32.38777160644531 4.818753719329834,-4.818753719329834 4.818753719329834,-4.818753719329834 C4.818753719329834,-4.818753719329834 32.38777160644531,0 32.38777160644531,0 C32.38777160644531,0 4.818753719329834,4.818753719329834 4.818753719329834,4.818753719329834 C4.818753719329834,4.818753719329834 0,32.38777160644531 0,32.38777160644531 C0,32.38777160644531 -4.818753719329834,4.818753719329834 -4.818753719329834,4.818753719329834 C-4.818753719329834,4.818753719329834 -32.38777160644531,0 -32.38777160644531,0 C-32.38777160644531,0 -4.818753719329834,-4.818753719329834 -4.818753719329834,-4.818753719329834 C-4.818753719329834,-4.818753719329834 0,-32.38777160644531 0,-32.38777160644531z"/><path stroke-linecap="round" stroke-linejoin="round" fill-opacity="0" stroke="rgb(255,255,255)" stroke-opacity="1" stroke-width="5.104745007477323" d=" M0,-32.38777160644531 C0,-32.38777160644531 4.818753719329834,-4.818753719329834 4.818753719329834,-4.818753719329834 C4.818753719329834,-4.818753719329834 32.38777160644531,0 32.38777160644531,0 C32.38777160644531,0 4.818753719329834,4.818753719329834 4.818753719329834,4.818753719329834 C4.818753719329834,4.818753719329834 0,32.38777160644531 0,32.38777160644531 C0,32.38777160644531 -4.818753719329834,4.818753719329834 -4.818753719329834,4.818753719329834 C-4.818753719329834,4.818753719329834 -32.38777160644531,0 -32.38777160644531,0 C-32.38777160644531,0 -4.818753719329834,-4.818753719329834 -4.818753719329834,-4.818753719329834 C-4.818753719329834,-4.818753719329834 0,-32.38777160644531 0,-32.38777160644531z"/></g></g><g transform="matrix(1.9498772621154785,0,0,1.9498772621154785,427.3489990234375,90.46900177001953)" opacity="0.9736196305796542" style="display: block;"><g opacity="1" transform="matrix(1,0,0,1,0,0)"><path fill="rgb(255,255,255)" fill-opacity="1" d=" M0,-29.60085678100586 C0,-29.60085678100586 3.5180513858795166,-3.5180513858795166 3.5180513858795166,-3.5180513858795166 C3.5180513858795166,-3.5180513858795166 29.60085678100586,0 29.60085678100586,0 C29.60085678100586,0 3.5180513858795166,3.5180513858795166 3.5180513858795166,3.5180513858795166 C3.5180513858795166,3.5180513858795166 0,29.60085678100586 0,29.60085678100586 C0,29.60085678100586 -3.5180513858795166,3.5180513858795166 -3.5180513858795166,3.5180513858795166 C-3.5180513858795166,3.5180513858795166 -29.60085678100586,0 -29.60085678100586,0 C-29.60085678100586,0 -3.5180513858795166,-3.5180513858795166 -3.5180513858795166,-3.5180513858795166 C-3.5180513858795166,-3.5180513858795166 0,-29.60085678100586 0,-29.60085678100586z"/><path stroke-linecap="round" stroke-linejoin="round" fill-opacity="0" stroke="rgb(255,255,255)" stroke-opacity="1" stroke-width="4.19090267588836" d=" M0,-29.60085678100586 C0,-29.60085678100586 3.5180513858795166,-3.5180513858795166 3.5180513858795166,-3.5180513858795166 C3.5180513858795166,-3.5180513858795166 29.60085678100586,0 29.60085678100586,0 C29.60085678100586,0 3.5180513858795166,3.5180513858795166 3.5180513858795166,3.5180513858795166 C3.5180513858795166,3.5180513858795166 0,29.60085678100586 0,29.60085678100586 C0,29.60085678100586 -3.5180513858795166,3.5180513858795166 -3.5180513858795166,3.5180513858795166 C-3.5180513858795166,3.5180513858795166 -29.60085678100586,0 -29.60085678100586,0 C-29.60085678100586,0 -3.5180513858795166,-3.5180513858795166 -3.5180513858795166,-3.5180513858795166 C-3.5180513858795166,-3.5180513858795166 0,-29.60085678100586 0,-29.60085678100586z"/></g></g><g transform="matrix(1.9498772621154785,0,0,1.9498772621154785,427.3489990234375,130.468994140625)" opacity="0.9736196305796542" style="display: block;"><g opacity="1" transform="matrix(1,0,0,1,0,0)"><path fill="url(#__lottie_element_85)" mask="url(#__lottie_element_87)" fill-opacity="1" d="M0 0 M65.11499786376953,0 C65.11499786376953,35.96200180053711 35.96200180053711,65.11499786376953 0,65.11499786376953 C-35.96200180053711,65.11499786376953 -65.11499786376953,35.96200180053711 -65.11499786376953,0 C-65.11499786376953,-35.96200180053711 -35.96200180053711,-65.11499786376953 0,-65.11499786376953 C35.96200180053711,-65.11499786376953 65.11499786376953,-35.96200180053711 65.11499786376953,0z"/></g></g><g transform="matrix(0.10052844882011414,0,0,0.10052844882011414,128.48097229003906,124.69878387451172)" opacity="0.0002781294373450294" style="display: none;"><g opacity="1" transform="matrix(1,0,0,1,-182.18699645996094,74.20999908447266)"><path fill="url(#__lottie_element_263)" mask="url(#__lottie_element_265)" fill-opacity="1" d="M0 0 M65.11499786376953,0 C65.11499786376953,35.96200180053711 35.96200180053711,65.11499786376953 0,65.11499786376953 C-35.96200180053711,65.11499786376953 -65.11499786376953,35.96200180053711 -65.11499786376953,0 C-65.11499786376953,-35.96200180053711 -35.96200180053711,-65.11499786376953 0,-65.11499786376953 C35.96200180053711,-65.11499786376953 65.11499786376953,-35.96200180053711 65.11499786376953,0z"/></g></g><g transform="matrix(0.13482783734798431,0,0,0.13482783734798431,491.9483947753906,456.1562194824219)" opacity="0.0019545928529444722" style="display: none;"><g opacity="1" transform="matrix(1,0,0,1,-182.18699645996094,74.20999908447266)"><path fill="url(#__lottie_element_269)" mask="url(#__lottie_element_271)" fill-opacity="1" d="M0 0 M65.11499786376953,0 C65.11499786376953,35.96200180053711 35.96200180053711,65.11499786376953 0,65.11499786376953 C-35.96200180053711,65.11499786376953 -65.11499786376953,35.96200180053711 -65.11499786376953,0 C-65.11499786376953,-35.96200180053711 -35.96200180053711,-65.11499786376953 0,-65.11499786376953 C35.96200180053711,-65.11499786376953 65.11499786376953,-35.96200180053711 65.11499786376953,0z"/></g></g><g transform="matrix(0.9845558404922485,-0.17507414519786835,0.1750747263431549,0.9845523834228516,265.1610412597656,367.5744323730469)" opacity="1" style="display: block;"><g opacity="1" transform="matrix(1,0,0,1,0,0)"><path fill="rgb(255,213,39)" fill-opacity="1" d=" M129.2050018310547,44.43000030517578 C111.07499694824219,57.00299835205078 132.35499572753906,107.25399780273438 161.96499633789062,112.64399719238281 C171.51600646972656,114.38300323486328 180.58299255371094,76.05799865722656 170.33299255371094,56.55799865722656 C160.08299255371094,37.05799865722656 138.25399780273438,38.154998779296875 129.2050018310547,44.43000030517578z"/></g></g><g transform="matrix(0.9801064133644104,-0.2769300639629364,0.2832735478878021,1.098726749420166,501.54608154296875,310.5866394042969)" opacity="1" style="display: block;"><g opacity="1" transform="matrix(1,0,0,1,0,0)"><path fill="rgb(255,213,39)" fill-opacity="1" d=" M-46.8724479675293,26.588125228881836 C0.7069518566131592,7.920138835906982 41.30988311767578,-6.777276515960693 49.9688835144043,8.404723167419434 C56.34488296508789,19.58472442626953 23.931747436523438,53.28830337524414 -21.628772735595703,79.86642456054688"/><path stroke-linecap="round" stroke-linejoin="round" fill-opacity="0" stroke="rgb(250,144,22)" stroke-opacity="1" stroke-width="13.333" d=" M-46.8724479675293,26.588125228881836 C0.7069518566131592,7.920138835906982 41.30988311767578,-6.777276515960693 49.9688835144043,8.404723167419434 C56.34488296508789,19.58472442626953 23.931747436523438,53.28830337524414 -21.628772735595703,79.86642456054688"/></g></g><g transform="matrix(0.9801064133644104,-0.2769300639629364,0.2832735478878021,1.098726749420166,489.5050354003906,299.9980773925781)" opacity="1" style="display: block;"><g opacity="1" transform="matrix(1,0,0,1,0,0)"><path stroke-linecap="round" stroke-linejoin="round" fill-opacity="0" stroke="rgb(255,255,255)" stroke-opacity="1" stroke-width="10" d=" M-0.5440000295639038,42.279998779296875 C9.52299976348877,39.2599983215332 19.165000915527344,36.00699996948242 28.44700050354004,32.34700012207031"/></g></g><g transform="matrix(1.25,0,0,1.25,319.00482177734375,317.25567626953125)" opacity="1" style="display: block;"><g opacity="1" transform="matrix(1,0,0,1,-47.86199951171875,248.38999938964844)"><path fill="rgb(255,255,255)" fill-opacity="1" d=" M199.13800048828125,-7.139999866485596 C199.13800048828125,-7.139999866485596 299.5190124511719,-12.149999618530273 299.5190124511719,-12.149999618530273 C299.5190124511719,-12.149999618530273 297.63800048828125,6.5289998054504395 297.63800048828125,6.5289998054504395 C297.63800048828125,6.5289998054504395 -199.13800048828125,6.639999866485596 -199.13800048828125,6.639999866485596 C-199.13800048828125,6.639999866485596 -199.13800048828125,-7.139999866485596 -199.13800048828125,-7.139999866485596 C-199.13800048828125,-7.139999866485596 199.13800048828125,-7.139999866485596 199.13800048828125,-7.139999866485596z"/></g></g><g transform="matrix(1.25,0,0,1.25,319.00482177734375,279.75567626953125)" opacity="1" style="display: block;"><g opacity="1" transform="matrix(1,0,0,1,0,0)"><path fill="rgb(189,234,255)" fill-opacity="1" d=" M-249,268.20001220703125 C-249,268.20001220703125 -249,239.60000610351562 -249,239.60000610351562 C-249,239.60000610351562 -214.47300720214844,214.156005859375 -214.47300720214844,214.156005859375 C-214.47300720214844,214.156005859375 -163,213 -163,213 C-163,213 -163,195.5 -163,195.5 C-163,195.5 -137,173.5 -137,173.5 C-137,173.5 136.9040069580078,174.29200744628906 136.9040069580078,174.29200744628906 C136.9040069580078,174.29200744628906 166,195.5 166,195.5 C166,195.5 166,227 166,227 C166,227 195.0679931640625,225.88499450683594 195.0679931640625,225.88499450683594 C195.0679931640625,225.88499450683594 250,267.70001220703125 250,267.70001220703125"/><path stroke-linecap="round" stroke-linejoin="round" fill-opacity="0" stroke="rgb(189,234,255)" stroke-opacity="1" stroke-width="8" d=" M-249,268.20001220703125 C-249,268.20001220703125 -249,239.60000610351562 -249,239.60000610351562 C-249,239.60000610351562 -214.47300720214844,214.156005859375 -214.47300720214844,214.156005859375 C-214.47300720214844,214.156005859375 -163,213 -163,213 C-163,213 -163,195.5 -163,195.5 C-163,195.5 -137,173.5 -137,173.5 C-137,173.5 136.9040069580078,174.29200744628906 136.9040069580078,174.29200744628906 C136.9040069580078,174.29200744628906 166,195.5 166,195.5 C166,195.5 166,227 166,227 C166,227 195.0679931640625,225.88499450683594 195.0679931640625,225.88499450683594 C195.0679931640625,225.88499450683594 250,267.70001220703125 250,267.70001220703125"/></g></g><g transform="matrix(1.25,0,0,1.25,319.00482177734375,279.75567626953125)" opacity="1" style="display: block;"><g opacity="1" transform="matrix(1,0,0,1,0,0)"><path fill="rgb(255,255,255)" fill-opacity="1" d=" M-249,297.25 C-249,297.25 -249,239.60000610351562 -249,239.60000610351562 C-249,239.60000610351562 -163,239.60000610351562 -163,239.60000610351562 C-163,239.60000610351562 -163,195.5 -163,195.5 C-163,195.5 166,195.5 166,195.5 C166,195.5 166,268.20001220703125 166,268.20001220703125 C166,268.20001220703125 222,268.20001220703125 250,268.20001220703125 C250,268.20001220703125 250.39599609375,296.1960144042969 250.39599609375,296.1960144042969"/><path stroke-linecap="round" stroke-linejoin="round" fill-opacity="0" stroke="rgb(155,222,255)" stroke-opacity="1" stroke-width="8" d=" M-249,297.25 C-249,297.25 -249,239.60000610351562 -249,239.60000610351562 C-249,239.60000610351562 -163,239.60000610351562 -163,239.60000610351562 C-163,239.60000610351562 -163,195.5 -163,195.5 C-163,195.5 166,195.5 166,195.5 C166,195.5 166,268.20001220703125 166,268.20001220703125 C166,268.20001220703125 222,268.20001220703125 250,268.20001220703125 C250,268.20001220703125 250.39599609375,296.1960144042969 250.39599609375,296.1960144042969"/></g></g><g transform="matrix(-1.1000018119812012,0,0,1.099998116493225,330.7060852050781,410.25946044921875)" opacity="1" style="display: block;"><g opacity="1" transform="matrix(1,0,0,1,0,0)"><path fill="rgb(48,163,230)" fill-opacity="1" d=" M9.675000190734863,96.7040023803711 C-36.347999572753906,96.7040023803711 -91.93099975585938,94.26100158691406 -129.22000122070312,73.51899719238281 C-149.3560028076172,62.31800079345703 -160.04800415039062,45.25699996948242 -157.42999267578125,20.50200080871582 C-156.7169952392578,13.756999969482422 -155.59800720214844,7.355000019073486 -154.1020050048828,1.281999945640564 C-136.24200439453125,-71.2249984741211 -64.72899627685547,-96.71499633789062 9.675000190734863,-96.71499633789062 C97.68299865722656,-96.71499633789062 164.40699768066406,-70.44400024414062 170.593994140625,27.851999282836914 C175.08700561523438,99.23799896240234 80.91100311279297,96.7040023803711 9.675000190734863,96.7040023803711z"/><path stroke-linecap="round" stroke-linejoin="round" fill-opacity="0" stroke="rgb(21,120,177)" stroke-opacity="1" stroke-width="10" d=" M9.675000190734863,96.7040023803711 C-36.347999572753906,96.7040023803711 -91.93099975585938,94.26100158691406 -129.22000122070312,73.51899719238281 C-149.3560028076172,62.31800079345703 -160.04800415039062,45.25699996948242 -157.42999267578125,20.50200080871582 C-156.7169952392578,13.756999969482422 -155.59800720214844,7.355000019073486 -154.1020050048828,1.281999945640564 C-136.24200439453125,-71.2249984741211 -64.72899627685547,-96.71499633789062 9.675000190734863,-96.71499633789062 C97.68299865722656,-96.71499633789062 164.40699768066406,-70.44400024414062 170.593994140625,27.851999282836914 C175.08700561523438,99.23799896240234 80.91100311279297,96.7040023803711 9.675000190734863,96.7040023803711z"/></g></g><g transform="matrix(-0.0819597989320755,-1.0969403982162476,-1.0969442129135132,0.0819595530629158,461.96710205078125,471.3775329589844)" opacity="1" style="display: block;"><g opacity="1" transform="matrix(1,0,0,1,0,0)"><path stroke-linecap="round" stroke-linejoin="round" fill-opacity="0" stroke="rgb(100,211,255)" stroke-opacity="1" stroke-width="10" d=" M-10.354999542236328,33.10300064086914 C-6.507999897003174,8.126999855041504 8.050000190734863,-13.765000343322754 24.48200035095215,-16.98900032043457"/></g></g><g transform="matrix(1.0000007152557373,0,0,0.9999971985816956,319.9991455078125,319.7495422363281)" opacity="1" style="display: block;"><g opacity="1" transform="matrix(1,0,0,1,-3.7790000438690186,18.601999282836914)"><path fill="rgb(255,213,39)" fill-opacity="1" d=" M0,-23.601999282836914 C73.57599639892578,-23.601999282836914 143.2209930419922,-1.034999966621399 143.2209930419922,12 C143.2209930419922,25.03499984741211 73.07599639892578,30.851999282836914 -0.5,30.851999282836914 C-74.07599639892578,30.851999282836914 -139.2209930419922,29.03499984741211 -139.2209930419922,16 C-139.2209930419922,2.9649999141693115 -73.57599639892578,-23.601999282836914 0,-23.601999282836914z"/></g></g><g transform="matrix(-1.1000018119812012,0,0,1.099998116493225,315.4017333984375,208.21510314941406)" opacity="1" style="display: block;"><g opacity="1" transform="matrix(1,0,0,1,0,0)"><path fill="rgb(255,213,39)" fill-opacity="1" d=" M122.97599792480469,131.04600524902344 C152.00999450683594,107.10800170898438 168.87100219726562,73.6510009765625 168.87100219726562,34.40399932861328 C168.87100219726562,-48.97100067138672 93.26599884033203,-131.04600524902344 0,-131.04600524902344 C-93.26499938964844,-131.04600524902344 -168.87100219726562,-48.97100067138672 -168.87100219726562,34.40399932861328 C-168.87100219726562,73.75700378417969 -151.9250030517578,107.06400299072266 -123.25399780273438,130.81399536132812"/><path stroke-linecap="round" stroke-linejoin="round" fill-opacity="0" stroke="rgb(250,144,22)" stroke-opacity="1" stroke-width="10" d=" M122.97599792480469,131.04600524902344 C152.00999450683594,107.10800170898438 168.87100219726562,73.6510009765625 168.87100219726562,34.40399932861328 C168.87100219726562,-48.97100067138672 93.26599884033203,-131.04600524902344 0,-131.04600524902344 C-93.26499938964844,-131.04600524902344 -168.87100219726562,-48.97100067138672 -168.87100219726562,34.40399932861328 C-168.87100219726562,73.75700378417969 -151.9250030517578,107.06400299072266 -123.25399780273438,130.81399536132812"/></g></g><g transform="matrix(-1.0969213247299194,0.08226589113473892,0.08226616680622101,1.0969175100326538,397.5153503417969,135.9322967529297)" opacity="1" style="display: block;"><g opacity="1" transform="matrix(1,0,0,1,0,0)"><path stroke-linecap="round" stroke-linejoin="round" fill-opacity="0" stroke="rgb(255,255,255)" stroke-opacity="1" stroke-width="10" d=" M-49.04999923706055,41.823001861572266 C-37.520999908447266,14.730999946594238 -16.527999877929688,-9.394000053405762 10.168999671936035,-25.4950008392334 C20.29599952697754,-31.601999282836914 31.243000030517578,-36.55400085449219 42.80500030517578,-40.07600021362305"/></g></g><g transform="matrix(-1.1000018119812012,0,0,1.099998116493225,181.94403076171875,232.69998168945312)" opacity="1" style="display: block;"><g opacity="1" transform="matrix(1,0,0,1,0,0)"><path stroke-linecap="round" stroke-linejoin="round" fill-opacity="0" stroke="rgb(252,238,33)" stroke-opacity="1" stroke-width="10" d=" M-8.291999816894531,-68.63899993896484 C2.9600000381469727,-55.10599899291992 11.604000091552734,-39.79600143432617 16.905000686645508,-23.695999145507812 C20.79599952697754,-11.878999710083008 22.886999130249023,0.3619999885559082 22.886999130249023,12.638999938964844 C22.886999130249023,38.875999450683594 13.338000297546387,61.42499923706055 -2.927000045776367,79.20600128173828"/></g></g><g transform="matrix(-0.12024994939565659,1.0934056043624878,1.0934092998504639,0.12024952471256256,217.0383758544922,145.80032348632812)" opacity="1" style="display: block;"><g opacity="1" transform="matrix(1,0,0,1,0,0)"><path stroke-linecap="round" stroke-linejoin="round" fill-opacity="0" stroke="rgb(255,255,255)" stroke-opacity="1" stroke-width="10" d=" M-40.071998596191406,33.97999954223633 C-33.15999984741211,19.378000259399414 -22.601999282836914,5.995999813079834 -11.779999732971191,-3.6459999084472656"/></g></g><g transform="matrix(1.0958510637283325,0.09546948224306107,0.09546985477209091,-1.095847249031067,181.94403076171875,232.69998168945312)" opacity="1" style="display: block;"><g opacity="1" transform="matrix(1,0,0,1,242.3280029296875,13.951000213623047)"><path stroke-linecap="round" stroke-linejoin="round" fill-opacity="0" stroke="rgb(252,238,33)" stroke-opacity="1" stroke-width="10" d=" M12.739999771118164,-62.0620002746582 C26.898000717163086,-38.9739990234375 30.29800033569336,-13.842000007629395 24.97100067138672,10.651000022888184"/></g></g><g transform="matrix(-1.0853357315063477,-0.17902593314647675,-0.17902660369873047,1.085331916809082,545.1848754882812,13.107682228088379)" opacity="1" style="display: block;"><g opacity="1" transform="matrix(1,0,0,1,227.02099609375,227.05999755859375)"><path fill="rgb(255,93,31)" fill-opacity="1" d=" M54.29899978637695,-1.4160000085830688 C14.961999893188477,1.906000018119812 18.011999130249023,-45.4370002746582 0.49000000953674316,-45.60100173950195 C-29.881000518798828,-45.8849983215332 -23.756000518798828,1.7029999494552612 -73.81600189208984,-1.0729999542236328 C-81.85399627685547,-1.5190000534057617 -87.14099884033203,4.046999931335449 -88.99199676513672,10.444000244140625 C-89.39099884033203,11.822999954223633 -89.62999725341797,13.239999771118164 -89.7030029296875,14.644000053405762 C-89.89700317382812,18.382999420166016 -88.91000366210938,22.027000427246094 -86.61299896240234,24.597000122070312 C-59.39699935913086,55.055999755859375 24.062999725341797,58.39099884033203 67.35700225830078,29.73699951171875 C77.1449966430664,23.259000778198242 73.197998046875,16.989999771118164 63.6609992980957,14.756999969482422 C72.43699645996094,6.258999824523926 61.87900161743164,-2.055999994277954 54.29899978637695,-1.4160000085830688z"/><path stroke-linecap="round" stroke-linejoin="round" fill-opacity="0" stroke="rgb(207,53,2)" stroke-opacity="1" stroke-width="10" d=" M54.29899978637695,-1.4160000085830688 C14.961999893188477,1.906000018119812 18.011999130249023,-45.4370002746582 0.49000000953674316,-45.60100173950195 C-29.881000518798828,-45.8849983215332 -23.756000518798828,1.7029999494552612 -73.81600189208984,-1.0729999542236328 C-81.85399627685547,-1.5190000534057617 -87.14099884033203,4.046999931335449 -88.99199676513672,10.444000244140625 C-89.39099884033203,11.822999954223633 -89.62999725341797,13.239999771118164 -89.7030029296875,14.644000053405762 C-89.89700317382812,18.382999420166016 -88.91000366210938,22.027000427246094 -86.61299896240234,24.597000122070312 C-59.39699935913086,55.055999755859375 24.062999725341797,58.39099884033203 67.35700225830078,29.73699951171875 C77.1449966430664,23.259000778198242 73.197998046875,16.989999771118164 63.6609992980957,14.756999969482422 C72.43699645996094,6.258999824523926 61.87900161743164,-2.055999994277954 54.29899978637695,-1.4160000085830688z"/></g></g><g transform="matrix(-0.986385703086853,-0.48728036880493164,-0.4875450134277344,0.9858503341674805,447.6365661621094,194.3195037841797)" opacity="1" style="display: none;"><g opacity="1" transform="matrix(1,0,0,1,0,0)"><path stroke-linecap="round" stroke-linejoin="round" fill-opacity="0" stroke="rgb(255,255,255)" stroke-opacity="1" stroke-width="10" d=" M-48.518001556396484,40.59000015258789 C-43.22100067138672,28.485000610351562 -36.03300094604492,16.990999221801758 -27.29400062561035,6.565999984741211"/></g></g><g transform="matrix(-1.0853357315063477,-0.17902593314647675,-0.17902660369873047,1.085331916809082,545.1848754882812,13.107682228088379)" opacity="1" style="display: block;"><path fill="rgb(125,9,9)" fill-opacity="1" d=" M290.37,242.17 C252.35,260.82 180.81,259.12 158.87,242.57 C162.94,245.71 168.59,248.32 175.34,250.39 C198.66,257.52 235.16,258.07 265.08,250.98 C274.33,248.78 282.96,245.86 290.37,242.17z"/><g opacity="1" transform="matrix(1,0,0,1,237.4010009765625,247.552001953125)"><path stroke-linecap="round" stroke-linejoin="round" fill-opacity="0" stroke="rgb(125,9,9)" stroke-opacity="1" stroke-width="10" d=" M52.96799850463867,-5.381999969482422 C14.944999694824219,13.270000457763672 -56.595001220703125,11.567999839782715 -78.52799987792969,-4.984000205993652 C-74.46199798583984,-1.843999981880188 -68.81500244140625,0.7699999809265137 -62.06399917602539,2.8340001106262207 C-38.73899841308594,9.96399974822998 -2.240999937057495,10.517000198364258 27.68199920654297,3.4230000972747803 C36.93299865722656,1.2300000190734863 45.55699920654297,-1.6950000524520874 52.96799850463867,-5.381999969482422z"/></g></g><g transform="matrix(0.8932752013206482,0.6419194340705872,-0.6419216990470886,0.8932721614837646,244.5582733154297,188.48239135742188)" opacity="1" style="display: block;"><g opacity="1" transform="matrix(1,0,0,1,24.70599937438965,22.10700035095215)"><path stroke-linecap="round" stroke-linejoin="round" fill-opacity="0" stroke="rgb(255,180,132)" stroke-opacity="1" stroke-width="8" d=" M-22.240999221801758,11.289999961853027 C-13.946000099182129,4.9670000076293945 -10.017999649047852,-16.983999252319336 -12.909000396728516,-34.66899871826172"/></g></g><g transform="matrix(-0.9507938623428345,-0.2758786082267761,-0.3065304756164551,1.0564258098602295,539.2349853515625,50.945465087890625)" opacity="1" style="display: block;"><g opacity="1" transform="matrix(1,0,0,1,0,0)"><g opacity="1" transform="matrix(1,0,0,1,147.8800048828125,185.3350067138672)"><path fill="rgb(0,0,0)" fill-opacity="1" d="M0 0"/></g><g opacity="1" transform="matrix(1,0,0,1,149.82400512695312,171.56500244140625)"><path fill="rgb(255,255,255)" fill-opacity="1" d="M0 0"/></g></g><g opacity="1" transform="matrix(1,0,0,1,0,0)"><g opacity="1" transform="matrix(1,0,0,1,293.01800537109375,185.07400512695312)"><path fill="rgb(0,0,0)" fill-opacity="1" d=" M-21.292999267578125,7.636000156402588 C-16.864999771118164,24.31599998474121 -3.743000030517578,34.41899871826172 8.017000198364258,30.20199966430664 C19.777000427246094,25.985000610351562 25.720802307128906,9.043999671936035 21.292999267578125,-7.636000156402588 C16.864999771118164,-24.31599998474121 3.743000030517578,-34.41899871826172 -8.017000198364258,-30.20199966430664 C-19.777000427246094,-25.985000610351562 -25.720802307128906,-9.043999671936035 -21.292999267578125,7.636000156402588z"/><path stroke-linecap="butt" stroke-linejoin="miter" fill-opacity="0" stroke-miterlimit="4" stroke="rgb(0,0,0)" stroke-opacity="1" stroke-width="0" d=" M-21.292999267578125,7.636000156402588 C-16.864999771118164,24.31599998474121 -3.743000030517578,34.41899871826172 8.017000198364258,30.20199966430664 C19.777000427246094,25.985000610351562 25.720802307128906,9.043999671936035 21.292999267578125,-7.636000156402588 C16.864999771118164,-24.31599998474121 3.743000030517578,-34.41899871826172 -8.017000198364258,-30.20199966430664 C-19.777000427246094,-25.985000610351562 -25.720802307128906,-9.043999671936035 -21.292999267578125,7.636000156402588z"/></g><g opacity="1" transform="matrix(1,0,0,1,289.8689880371094,171.4459991455078)"><path fill="rgb(255,255,255)" fill-opacity="1" d=" M8.157999992370605,0 C8.157999992370605,4.505000114440918 4.505000114440918,8.157999992370605 0,8.157999992370605 C-4.505000114440918,8.157999992370605 -8.157999992370605,4.505000114440918 -8.157999992370605,0 C-8.157999992370605,-4.505000114440918 -4.505000114440918,-8.157999992370605 0,-8.157999992370605 C4.505000114440918,-8.157999992370605 8.157999992370605,-4.505000114440918 8.157999992370605,0z"/></g></g></g><g transform="matrix(-1.0995686054229736,-0.030687114223837852,-0.030687378719449043,1.0995699167251587,520.19873046875,-14.273148536682129)" opacity="1" style="display: block;"><g opacity="1" transform="matrix(1,0,0,1,0,0)"><g opacity="1" transform="matrix(1,0,0,1,147.8800048828125,185.3350067138672)"><path fill="rgb(0,0,0)" fill-opacity="1" d=" M26.599000930786133,7.636000156402588 C21.06800079345703,24.31599998474121 4.675000190734863,34.41899871826172 -10.015000343322754,30.20199966430664 C-24.704999923706055,25.985000610351562 -32.130001068115234,9.043999671936035 -26.599000930786133,-7.636000156402588 C-21.06800079345703,-24.31599998474121 -4.675000190734863,-34.41899871826172 10.015000343322754,-30.20199966430664 C24.704999923706055,-25.985000610351562 32.130001068115234,-9.043999671936035 26.599000930786133,7.636000156402588z"/><path stroke-linecap="butt" stroke-linejoin="miter" fill-opacity="0" stroke-miterlimit="4" stroke="rgb(0,0,0)" stroke-opacity="1" stroke-width="0" d=" M26.599000930786133,7.636000156402588 C21.06800079345703,24.31599998474121 4.675000190734863,34.41899871826172 -10.015000343322754,30.20199966430664 C-24.704999923706055,25.985000610351562 -32.130001068115234,9.043999671936035 -26.599000930786133,-7.636000156402588 C-21.06800079345703,-24.31599998474121 -4.675000190734863,-34.41899871826172 10.015000343322754,-30.20199966430664 C24.704999923706055,-25.985000610351562 32.130001068115234,-9.043999671936035 26.599000930786133,7.636000156402588z"/></g><g opacity="1" transform="matrix(1,0,0,1,149.82400512695312,171.56500244140625)"><path fill="rgb(255,255,255)" fill-opacity="1" d=" M8.682999610900879,1.2929999828338623 C9.413999557495117,5.949999809265137 5.949999809265137,10.362000465393066 0.9449999928474426,11.14799976348877 C-4.059999942779541,11.934000015258789 -8.711000442504883,8.795999526977539 -9.442000389099121,4.138999938964844 C-10.17300033569336,-0.5180000066757202 -6.709000110626221,-4.929999828338623 -1.7039999961853027,-5.716000080108643 C3.3010001182556152,-6.501999855041504 7.952000141143799,-3.364000082015991 8.682999610900879,1.2929999828338623z"/></g></g></g><g transform="matrix(0.4942407011985779,-0.07200902700424194,0.07277599722146988,0.4952216148376465,173.08026123046875,468.3878479003906)" opacity="0.33" style="display: block;"><g opacity="1" transform="matrix(1,0,0,1,19.992000579833984,19.98200035095215)"><path fill="rgb(22,120,178)" fill-opacity="1" d=" M0,-53.90399932861328 C-60.26499938964844,-53.90399932861328 -64.75399780273438,-26.26799964904785 -48.5,18.81999969482422 C-35.494998931884766,54.89500045776367 109.12000274658203,63.481998443603516 109.12000274658203,25.149999618530273 C109.12000274658203,-18.510000228881836 60.26499938964844,-53.90399932861328 0,-53.90399932861328z"/></g></g><g transform="matrix(0.4942407011985779,-0.07200902700424194,0.07277599722146988,0.4952216148376465,164.5279083251953,410.19140625)" opacity="0.33" style="display: block;"><g opacity="1" transform="matrix(1,0,0,1,19.992000579833984,19.98200035095215)"><path fill="rgb(22,120,178)" fill-opacity="1" d=" M34.64899826049805,68.4209976196289 C24.924999237060547,47.832000732421875 19.485000610351562,24.822999954223633 19.485000610351562,0.5419999957084656 C19.485000610351562,-7.997000217437744 20.158000946044922,-16.378999710083008 21.452999114990234,-24.55299949645996 C70.61699676513672,-37.98899841308594 100.4739990234375,-82.28800201416016 106.77799987792969,-95.63700103759766 C110.11900329589844,-102.71099853515625 32.869998931884766,-82.55400085449219 25.04599952697754,-82.55400085449219 C25.04599952697754,-82.55400085449219 -25.04599952697754,-82.55400085449219 -25.04599952697754,-82.55400085449219 C-32.869998931884766,-82.55400085449219 -37.9900016784668,-74.41000366210938 -34.64899826049805,-67.33599853515625 C-24.924999237060547,-46.74700164794922 -19.485000610351562,-23.73900032043457 -19.485000610351562,0.5419999957084656 C-19.485000610351562,24.822999954223633 -24.924999237060547,47.832000732421875 -34.64899826049805,68.4209976196289 C-43.80699920654297,87.81199645996094 43.2859992980957,86.70899963378906 34.64899826049805,68.4209976196289z"/></g></g><g transform="matrix(0.4942407011985779,-0.07200902700424194,0.07277599722146988,0.4952216148376465,152.71615600585938,467.3122863769531)" opacity="1" style="display: block;"><g opacity="1" transform="matrix(1,0,0,1,0,0)"><path fill="rgb(255,188,0)" fill-opacity="1" d=" M0,-53.90399932861328 C-60.26499938964844,-53.90399932861328 -109.12000274658203,-18.510000228881836 -109.12000274658203,25.149999618530273 C-109.12000274658203,63.49700164794922 109.12000274658203,63.481998443603516 109.12000274658203,25.149999618530273 C109.12000274658203,-18.510000228881836 60.26499938964844,-53.90399932861328 0,-53.90399932861328z"/><path stroke-linecap="round" stroke-linejoin="round" fill-opacity="0" stroke="rgb(210,119,1)" stroke-opacity="1" stroke-width="24" d=" M0,-53.90399932861328 C-60.26499938964844,-53.90399932861328 -109.12000274658203,-18.510000228881836 -109.12000274658203,25.149999618530273 C-109.12000274658203,63.49700164794922 109.12000274658203,63.481998443603516 109.12000274658203,25.149999618530273 C109.12000274658203,-18.510000228881836 60.26499938964844,-53.90399932861328 0,-53.90399932861328z"/></g></g><g transform="matrix(0.9958003163337708,0.09399130940437317,-0.09186933189630508,0.9955421686172485,320.130859375,338.72491455078125)" opacity="1" style="display: block;"><g opacity="1" transform="matrix(1,0,0,1,-175.58200073242188,148.8769989013672)"><path fill="rgb(255,255,255)" fill-opacity="1" d=" M0,-7.376999855041504 C6.991469383239746,-7.376999855041504 12.668000221252441,-4.071366310119629 12.668000221252441,0 C12.668000221252441,4.071366310119629 6.991469383239746,7.376999855041504 0,7.376999855041504 C-6.991469383239746,7.376999855041504 -12.668000221252441,4.071366310119629 -12.668000221252441,0 C-12.668000221252441,-4.071366310119629 -6.991469383239746,-7.376999855041504 0,-7.376999855041504z"/></g></g><g transform="matrix(0.5636467933654785,-0.15702460706233978,0.16876834630966187,0.6042774319648743,259.63836669921875,352.5794372558594)" opacity="1" style="display: block;"><g opacity="1" transform="matrix(1,0,0,1,-175.58200073242188,148.8769989013672)"><path fill="rgb(255,226,106)" fill-opacity="1" d=" M0,-7.376999855041504 C6.991469383239746,-7.376999855041504 12.668000221252441,-4.071366310119629 12.668000221252441,0 C12.668000221252441,4.071366310119629 6.991469383239746,7.376999855041504 0,7.376999855041504 C-6.991469383239746,7.376999855041504 -12.668000221252441,4.071366310119629 -12.668000221252441,0 C-12.668000221252441,-4.071366310119629 -6.991469383239746,-7.376999855041504 0,-7.376999855041504z"/></g></g><g transform="matrix(0.4942407011985779,-0.07200902700424194,0.07277599722146988,0.4952216148376465,144.16380310058594,409.1158142089844)" opacity="1" style="display: block;"><g opacity="1" transform="matrix(1,0,0,1,0,0)"><path fill="rgb(255,188,0)" fill-opacity="1" d=" M34.64899826049805,68.4209976196289 C24.924999237060547,47.832000732421875 19.485000610351562,24.822999954223633 19.485000610351562,0.5419999957084656 C19.485000610351562,-23.73900032043457 24.924999237060547,-46.74700164794922 34.64899826049805,-67.33599853515625 C37.9900016784668,-74.41000366210938 32.869998931884766,-82.55400085449219 25.04599952697754,-82.55400085449219 C25.04599952697754,-82.55400085449219 -25.04599952697754,-82.55400085449219 -25.04599952697754,-82.55400085449219 C-32.869998931884766,-82.55400085449219 -37.9900016784668,-74.41000366210938 -34.64899826049805,-67.33599853515625 C-24.924999237060547,-46.74700164794922 -19.485000610351562,-23.73900032043457 -19.485000610351562,0.5419999957084656 C-19.485000610351562,24.822999954223633 -24.924999237060547,47.832000732421875 -34.64899826049805,68.4209976196289 C-43.80699920654297,87.81199645996094 43.2859992980957,86.70899963378906 34.64899826049805,68.4209976196289z"/><path stroke-linecap="round" stroke-linejoin="round" fill-opacity="0" stroke="rgb(210,119,1)" stroke-opacity="1" stroke-width="24" d=" M34.64899826049805,68.4209976196289 C24.924999237060547,47.832000732421875 19.485000610351562,24.822999954223633 19.485000610351562,0.5419999957084656 C19.485000610351562,-23.73900032043457 24.924999237060547,-46.74700164794922 34.64899826049805,-67.33599853515625 C37.9900016784668,-74.41000366210938 32.869998931884766,-82.55400085449219 25.04599952697754,-82.55400085449219 C25.04599952697754,-82.55400085449219 -25.04599952697754,-82.55400085449219 -25.04599952697754,-82.55400085449219 C-32.869998931884766,-82.55400085449219 -37.9900016784668,-74.41000366210938 -34.64899826049805,-67.33599853515625 C-24.924999237060547,-46.74700164794922 -19.485000610351562,-23.73900032043457 -19.485000610351562,0.5419999957084656 C-19.485000610351562,24.822999954223633 -24.924999237060547,47.832000732421875 -34.64899826049805,68.4209976196289 C-43.80699920654297,87.81199645996094 43.2859992980957,86.70899963378906 34.64899826049805,68.4209976196289z"/></g></g><g transform="matrix(1,0,0,0.800000011920929,401.8621520996094,349.5935363769531)" opacity="1" style="display: block;"><g opacity="1" transform="matrix(1,0,0,1,0,0)"><path fill="rgb(39,149,213)" fill-opacity="1" d=" M-153.9340057373047,64.3949966430664 C-153.9340057373047,64.3949966430664 -61.862998962402344,64.25900268554688 10.15999984741211,40.66999816894531 C-19.613000869750977,62.38399887084961 -159.8179931640625,101.79499816894531 -159.8179931640625,101.79499816894531 C-159.8179931640625,101.79499816894531 -198.25100708007812,68.1969985961914 -211.5570068359375,48.88399887084961 C-163.36300659179688,63.32099914550781 -153.9340057373047,64.3949966430664 -153.9340057373047,64.3949966430664z"/></g></g><g transform="matrix(1,0,0,0.800000011920929,236.6371307373047,351.04473876953125)" opacity="1" style="display: block;"><g opacity="1" transform="matrix(1,0,0,1,0,0)"><path fill="rgb(99,211,255)" fill-opacity="1" d=" M14.041000366210938,58.470001220703125 C14.041000366210938,58.470001220703125 -51.137001037597656,9.319999694824219 -87.97899627685547,-47.74100112915039 C-94.36900329589844,-29.2450008392334 -82.54100036621094,11.467000007629395 -82.54100036621094,11.467000007629395 C-30.636999130249023,70.56999969482422 3.9030001163482666,81.13099670410156 3.9030001163482666,81.13099670410156 C3.9030001163482666,81.13099670410156 14.041000366210938,58.470001220703125 14.041000366210938,58.470001220703125z"/></g></g><g transform="matrix(0.8810984492301941,-0.18349336087703705,0.20388098061084747,0.978995680809021,263.70001220703125,449.58526611328125)" opacity="0.33" style="display: block;"><g opacity="1" transform="matrix(1,0,0,1,0,0)"><path fill="rgb(22,120,178)" fill-opacity="1" d=" M39.26100158691406,8.008999824523926 C35.17499923706055,28.040000915527344 14.095999717712402,40.65399932861328 -7.821000099182129,36.18299865722656 C-29.738000869750977,31.711999893188477 -44.19300079345703,11.850000381469727 -40.106998443603516,-8.180999755859375 C-36.020999908447266,-28.211999893188477 -14.942000389099121,-40.82600021362305 6.974999904632568,-36.35499954223633 C28.892000198364258,-31.884000778198242 43.34700012207031,-12.022000312805176 39.26100158691406,8.008999824523926z"/></g></g><g transform="matrix(1,0,0,0.800000011920929,401.8621520996094,349.5935363769531)" opacity="1" style="display: block;"><g opacity="1" transform="matrix(1,0,0,1,0,0)"><path fill="rgb(99,211,255)" fill-opacity="1" d=" M-153.6840057373047,58.805999755859375 C-153.6840057373047,58.805999755859375 -24.86199951171875,6.757999897003174 90.12200164794922,-40.54499816894531 C89.81565856933594,-20.906871795654297 84.72098541259766,-0.7273407578468323 81.0213851928711,11.44669246673584 C78.86808013916016,18.532817840576172 70.95565795898438,26.035615921020508 67.66680145263672,27.540359497070312 C-3.499950408935547,60.097747802734375 -126.56800079345703,75.58100128173828 -126.56800079345703,75.58100128173828 C-126.56800079345703,75.58100128173828 -153.6840057373047,58.805999755859375 -153.6840057373047,58.805999755859375z"/></g></g><g transform="matrix(1,0,0,0.800000011920929,240.1681365966797,342.9807434082031)" opacity="1" style="display: block;"><g opacity="1" transform="matrix(1,0,0,1,0,0)"><path stroke-linecap="round" stroke-linejoin="round" fill-opacity="0" stroke="rgb(186,235,255)" stroke-opacity="1" stroke-width="10" d=" M15.010000228881836,67.66100311279297 C15.010000228881836,67.66100311279297 -46.667999267578125,37.525001525878906 -89.01000213623047,-36.4109992980957"/></g></g><g transform="matrix(1,0,0,0.800000011920929,398.33111572265625,342.8831481933594)" opacity="1" style="display: block;"><g opacity="1" transform="matrix(1,0,0,1,0,0)"><path stroke-linecap="round" stroke-linejoin="round" fill-opacity="0" stroke="rgb(186,235,255)" stroke-opacity="1" stroke-width="10" d=" M-146.6529998779297,65.28199768066406 C-146.6529998779297,65.28199768066406 -37.83100128173828,13.270999908447266 89.15299987792969,-34.03200149536133"/></g></g><g transform="matrix(0.9000023603439331,0,0,1,257.5861511230469,434.53875732421875)" opacity="1" style="display: block;"><g opacity="1" transform="matrix(1,0,0,1,0,0)"><path fill="rgb(255,185,0)" fill-opacity="1" d=" M37.01599884033203,0 C37.01599884033203,20.44300079345703 20.44300079345703,37.01599884033203 0,37.01599884033203 C-20.44300079345703,37.01599884033203 -37.01599884033203,20.44300079345703 -37.01599884033203,0 C-37.01599884033203,-20.44300079345703 -20.44300079345703,-37.01599884033203 0,-37.01599884033203 C20.44300079345703,-37.01599884033203 37.01599884033203,-20.44300079345703 37.01599884033203,0z"/><path stroke-linecap="round" stroke-linejoin="round" fill-opacity="0" stroke="rgb(248,217,58)" stroke-opacity="1" stroke-width="10" d=" M37.01599884033203,0 C37.01599884033203,20.44300079345703 20.44300079345703,37.01599884033203 0,37.01599884033203 C-20.44300079345703,37.01599884033203 -37.01599884033203,20.44300079345703 -37.01599884033203,0 C-37.01599884033203,-20.44300079345703 -20.44300079345703,-37.01599884033203 0,-37.01599884033203 C20.44300079345703,-37.01599884033203 37.01599884033203,-20.44300079345703 37.01599884033203,0z"/></g></g><g transform="matrix(0.9000023603439331,0,0,1,249.9991455078125,433.8787536621094)" opacity="1" style="display: block;"><g opacity="1" transform="matrix(1,0,0,1,0,0)"><path fill="rgb(255,185,0)" fill-opacity="1" d=" M37.01599884033203,0 C37.01599884033203,20.44300079345703 20.44300079345703,37.01599884033203 0,37.01599884033203 C-20.44300079345703,37.01599884033203 -37.01599884033203,20.44300079345703 -37.01599884033203,0 C-37.01599884033203,-20.44300079345703 -20.44300079345703,-37.01599884033203 0,-37.01599884033203 C20.44300079345703,-37.01599884033203 37.01599884033203,-20.44300079345703 37.01599884033203,0z"/><path stroke-linecap="round" stroke-linejoin="round" fill-opacity="0" stroke="rgb(255,231,111)" stroke-opacity="1" stroke-width="10" d=" M37.01599884033203,0 C37.01599884033203,20.44300079345703 20.44300079345703,37.01599884033203 0,37.01599884033203 C-20.44300079345703,37.01599884033203 -37.01599884033203,20.44300079345703 -37.01599884033203,0 C-37.01599884033203,-20.44300079345703 -20.44300079345703,-37.01599884033203 0,-37.01599884033203 C20.44300079345703,-37.01599884033203 37.01599884033203,-20.44300079345703 37.01599884033203,0z"/></g></g><g transform="matrix(0.9000023603439331,0,0,1,233.34190368652344,415.3707275390625)" opacity="0.8" style="display: block;"><g opacity="1" transform="matrix(1,0,0,1,0,0)"><path stroke-linecap="round" stroke-linejoin="round" fill-opacity="0" stroke="rgb(255,254,254)" stroke-opacity="1" stroke-width="10" d=" M-18.507999420166016,18.507999420166016 C-18.507999420166016,-1.934999942779541 -1.934999942779541,-18.507999420166016 18.507999420166016,-18.507999420166016"/></g></g><g transform="matrix(0.9000023603439331,0,0,1,266.6563720703125,452.3867492675781)" opacity="0.5" style="display: block;"><g opacity="1" transform="matrix(1,0,0,1,0,0)"><path stroke-linecap="round" stroke-linejoin="round" fill-opacity="0" stroke="rgb(255,254,254)" stroke-opacity="1" stroke-width="10" d=" M18.507999420166016,-18.507999420166016 C18.507999420166016,1.934999942779541 1.934999942779541,18.507999420166016 -18.507999420166016,18.507999420166016"/></g></g><g transform="matrix(0.9000023603439331,0,0,1,247.7266387939453,433.8787536621094)" opacity="1" style="display: block;"><g opacity="1" transform="matrix(1,0,0,1,0,0)"><path fill="rgb(255,231,111)" fill-opacity="1" d=" M2.700000047683716,-4.353000164031982 C-0.7020000219345093,-2.0889999866485596 -4.193999767303467,0.05299999937415123 -7.47599983215332,2.4790000915527344 C-9.913000106811523,4.28000020980835 -12.354999542236328,4.48799991607666 -15.086000442504883,3.559999942779541 C-17.367000579833984,2.7850000858306885 -19.672000885009766,2.078000068664551 -21.95800018310547,1.319000005722046 C-23.34000015258789,0.8600000143051147 -23.56800079345703,-0.3400000035762787 -22.46500015258789,-1.274999976158142 C-21.10700035095215,-2.427000045776367 18.847999572753906,-18.761999130249023 20.229999542236328,-19.065000534057617 C22.209999084472656,-19.49799919128418 23.347000122070312,-18.437000274658203 23.138999938964844,-16.44300079345703 C22.496000289916992,-10.265000343322754 18.172000885009766,16.09000015258789 18.10700035095215,16.452999114990234 C17.69700050354004,18.729000091552734 16.187000274658203,19.586000442504883 13.968999862670898,18.964000701904297 C10.880999565124512,18.097999572753906 -1.687999963760376,9.241000175476074 -2.5260000228881836,8.036999702453613 C-3.23799991607666,7.013999938964844 -3.180999994277954,6.119999885559082 -2.2639999389648438,5.256999969482422 C10.572999954223633,-6.826000213623047 11.048999786376953,-7.072999954223633 11.668999671936035,-8.456000328063965 C11.810999870300293,-8.77299976348877 11.979999542236328,-9.12600040435791 11.755000114440918,-9.425999641418457 C11.503999710083008,-9.76200008392334 11.126999855041504,-9.588000297546387 10.809000015258789,-9.472999572753906 C8.859000205993652,-8.765000343322754 4.460000038146973,-5.605000019073486 2.700000047683716,-4.353000164031982z"/></g></g><g transform="matrix(0.9000023603439331,0,0,1,249.9991455078125,433.8787536621094)" opacity="1" style="display: block;"><g opacity="1" transform="matrix(1,0,0,1,0,0)"><path stroke-linecap="round" stroke-linejoin="round" fill-opacity="0" stroke="rgb(255,255,255)" stroke-opacity="1" stroke-width="10" d="M0 0"/></g></g><g transform="matrix(0.7484322786331177,-0.05383475124835968,0.048451416194438934,0.8315892219543457,232.4193878173828,400.3607482910156)" opacity="1" style="display: block;"><g opacity="1" transform="matrix(1,0,0,1,0,0)"><path fill="rgb(255,255,255)" fill-opacity="1" d=" M0,-33.94085693359375 C0,-33.94085693359375 5.543605804443359,-5.543605804443359 5.543605804443359,-5.543605804443359 C5.543605804443359,-5.543605804443359 33.94085693359375,0 33.94085693359375,0 C33.94085693359375,0 5.543605804443359,5.543605804443359 5.543605804443359,5.543605804443359 C5.543605804443359,5.543605804443359 0,33.94085693359375 0,33.94085693359375 C0,33.94085693359375 -5.543605804443359,5.543605804443359 -5.543605804443359,5.543605804443359 C-5.543605804443359,5.543605804443359 -33.94085693359375,0 -33.94085693359375,0 C-33.94085693359375,0 -5.543605804443359,-5.543605804443359 -5.543605804443359,-5.543605804443359 C-5.543605804443359,-5.543605804443359 0,-33.94085693359375 0,-33.94085693359375z"/><path stroke-linecap="round" stroke-linejoin="round" fill-opacity="0" stroke="rgb(255,255,255)" stroke-opacity="1" stroke-width="5.614008801734936" d=" M0,-33.94085693359375 C0,-33.94085693359375 5.543605804443359,-5.543605804443359 5.543605804443359,-5.543605804443359 C5.543605804443359,-5.543605804443359 33.94085693359375,0 33.94085693359375,0 C33.94085693359375,0 5.543605804443359,5.543605804443359 5.543605804443359,5.543605804443359 C5.543605804443359,5.543605804443359 0,33.94085693359375 0,33.94085693359375 C0,33.94085693359375 -5.543605804443359,5.543605804443359 -5.543605804443359,5.543605804443359 C-5.543605804443359,5.543605804443359 -33.94085693359375,0 -33.94085693359375,0 C-33.94085693359375,0 -5.543605804443359,-5.543605804443359 -5.543605804443359,-5.543605804443359 C-5.543605804443359,-5.543605804443359 0,-33.94085693359375 0,-33.94085693359375z"/></g></g><g transform="matrix(-0.6976180672645569,-0.7173739075660706,-0.7164458632469177,0.6967107653617859,34.183631896972656,390.6500549316406)" opacity="1" style="display: block;"><g opacity="1" transform="matrix(1,0,0,1,0,0)"><path fill="rgb(255,213,39)" fill-opacity="1" d=" M-51.316001892089844,-67.89800262451172 C-62.887001037597656,-40.64799880981445 -105.59500122070312,-68.14399719238281 -108.29299926757812,-53.89500045776367 C-114.96399688720703,-18.659000396728516 -68.45999908447266,26.10099983215332 -30.961999893188477,-57.45399856567383"/><path stroke-linecap="round" stroke-linejoin="round" fill-opacity="0" stroke="rgb(250,144,22)" stroke-opacity="1" stroke-width="12" d=" M-51.316001892089844,-67.89800262451172 C-62.887001037597656,-40.64799880981445 -105.59500122070312,-68.14399719238281 -108.29299926757812,-53.89500045776367 C-114.96399688720703,-18.659000396728516 -68.45999908447266,26.10099983215332 -30.961999893188477,-57.45399856567383"/></g></g><g transform="matrix(0.9016537070274353,-0.4762498438358307,0.5298682451248169,1.0014592409133911,392.38592529296875,322.5160217285156)" opacity="1" style="display: block;"><g opacity="1" transform="matrix(1,0,0,1,0,0)"><path stroke-linecap="round" stroke-linejoin="round" fill-opacity="0" stroke="rgb(252,238,33)" stroke-opacity="1" stroke-width="10" d=" M-297.0379943847656,-44.09199905395508 C-295.77398681640625,-31.679000854492188 -289.3760070800781,-24.631999969482422 -278.29998779296875,-24.761999130249023"/></g></g><g transform="matrix(0.4942407011985779,-0.07200902700424194,0.07277599722146988,0.4952216148376465,-40.978538513183594,231.95921325683594)" opacity="1" style="display: block;"><g opacity="1" transform="matrix(1,0,0,1,169.5019989013672,234.18899536132812)"><path stroke-linecap="round" stroke-linejoin="round" fill-opacity="0" stroke="rgb(210,119,1)" stroke-opacity="1" stroke-width="30" d=" M77.78700256347656,90.64700317382812 C72.75499725341797,99.45800018310547 66.0739974975586,103.74099731445312 57.36399841308594,103.74199676513672 C44.867000579833984,103.74299621582031 28.614999771118164,94.65299987792969 12.788999557495117,78.79499816894531 C-13.475000381469727,52.47700119018555 -37.3650016784668,7.943999767303467 -45.327999114990234,-29.496999740600586 C-50.70600128173828,-54.78499984741211 -48.39699935913086,-76.73899841308594 -38.9900016784668,-89.73100280761719 C-32.277000427246094,-99.00199890136719 -22.111000061035156,-103.7030029296875 -8.744000434875488,-103.7030029296875 C6.4019999504089355,-103.7030029296875 22.18400001525879,-97.7959976196289 32.755001068115234,-92.83999633789062 C46.165000915527344,-86.5530014038086 57.35599899291992,-105.41100311279297 46.92900085449219,-116.40399932861328 C46.92900085449219,-116.40399932861328 47.2869987487793,-117.18800354003906 47.2869987487793,-117.18800354003906 C29.92300033569336,-125.5459976196289 11.380000114440918,-132.40499877929688 -8.767000198364258,-132.4040069580078 C-32.707000732421875,-132.4029998779297 -51.48400115966797,-121.88300323486328 -63.06399917602539,-101.99099731445312 C-63.077999114990234,-101.96700286865234 -63.09199905395508,-101.94000244140625 -63.10599899291992,-101.91600036621094 C-63.10599899291992,-101.91600036621094 -63.106998443603516,-101.91699981689453 -63.106998443603516,-101.91699981689453 C-63.106998443603516,-101.91699981689453 -63.11000061035156,-101.91100311279297 -63.11000061035156,-101.91100311279297 C-63.11000061035156,-101.91100311279297 -63.10900115966797,-101.91000366210938 -63.10900115966797,-101.91000366210938 C-78.1709976196289,-76.0530014038086 -78.12300109863281,-38.233001708984375 -62.96799850463867,4.598999977111816 C-50.43000030517578,40.03300094604492 -28.202999114990234,76.54100036621094 -4.949999809265137,99.90399932861328 C-4.949999809265137,99.90399932861328 -4.872000217437744,99.98300170898438 -4.872000217437744,99.98300170898438 C16.31599998474121,121.19100189208984 37.92599868774414,132.4010009765625 57.62099838256836,132.4040069580078 C57.62300109863281,132.4040069580078 57.625,132.4040069580078 57.62699890136719,132.4040069580078 C75.43099975585938,132.4040069580078 90.072998046875,123.22599792480469 99.9800033569336,105.8740005493164 C109.13899993896484,89.83100128173828 86.86499786376953,74.75299835205078 77.78700256347656,90.64700317382812z"/><path fill="rgb(255,188,0)" fill-opacity="1" d=" M77.78700256347656,90.64700317382812 C72.75499725341797,99.45800018310547 66.0739974975586,103.74099731445312 57.36399841308594,103.74199676513672 C44.867000579833984,103.74299621582031 28.614999771118164,94.65299987792969 12.788999557495117,78.79499816894531 C-13.475000381469727,52.47700119018555 -37.3650016784668,7.943999767303467 -45.327999114990234,-29.496999740600586 C-50.70600128173828,-54.78499984741211 -48.39699935913086,-76.73899841308594 -38.9900016784668,-89.73100280761719 C-32.277000427246094,-99.00199890136719 -22.111000061035156,-103.7030029296875 -8.744000434875488,-103.7030029296875 C6.4019999504089355,-103.7030029296875 22.18400001525879,-97.7959976196289 32.755001068115234,-92.83999633789062 C46.165000915527344,-86.5530014038086 57.35599899291992,-105.41100311279297 46.92900085449219,-116.40399932861328 C46.92900085449219,-116.40399932861328 47.2869987487793,-117.18800354003906 47.2869987487793,-117.18800354003906 C29.92300033569336,-125.5459976196289 11.380000114440918,-132.40499877929688 -8.767000198364258,-132.4040069580078 C-32.707000732421875,-132.4029998779297 -51.48400115966797,-121.88300323486328 -63.06399917602539,-101.99099731445312 C-63.077999114990234,-101.96700286865234 -63.09199905395508,-101.94000244140625 -63.10599899291992,-101.91600036621094 C-63.10599899291992,-101.91600036621094 -63.106998443603516,-101.91699981689453 -63.106998443603516,-101.91699981689453 C-63.106998443603516,-101.91699981689453 -63.11000061035156,-101.91100311279297 -63.11000061035156,-101.91100311279297 C-63.11000061035156,-101.91100311279297 -63.10900115966797,-101.91000366210938 -63.10900115966797,-101.91000366210938 C-78.1709976196289,-76.0530014038086 -78.12300109863281,-38.233001708984375 -62.96799850463867,4.598999977111816 C-50.43000030517578,40.03300094604492 -28.202999114990234,76.54100036621094 -4.949999809265137,99.90399932861328 C-4.949999809265137,99.90399932861328 -4.872000217437744,99.98300170898438 -4.872000217437744,99.98300170898438 C16.31599998474121,121.19100189208984 37.92599868774414,132.4010009765625 57.62099838256836,132.4040069580078 C57.62300109863281,132.4040069580078 57.625,132.4040069580078 57.62699890136719,132.4040069580078 C75.43099975585938,132.4040069580078 90.072998046875,123.22599792480469 99.9800033569336,105.8740005493164 C109.13899993896484,89.83100128173828 86.86499786376953,74.75299835205078 77.78700256347656,90.64700317382812z"/><path stroke-linecap="round" stroke-linejoin="round" fill-opacity="0" stroke="rgb(210,119,1)" stroke-opacity="1" stroke-width="10" d=" M77.78700256347656,90.64700317382812 C72.75499725341797,99.45800018310547 66.0739974975586,103.74099731445312 57.36399841308594,103.74199676513672 C44.867000579833984,103.74299621582031 28.614999771118164,94.65299987792969 12.788999557495117,78.79499816894531 C-13.475000381469727,52.47700119018555 -37.3650016784668,7.943999767303467 -45.327999114990234,-29.496999740600586 C-50.70600128173828,-54.78499984741211 -48.39699935913086,-76.73899841308594 -38.9900016784668,-89.73100280761719 C-32.277000427246094,-99.00199890136719 -22.111000061035156,-103.7030029296875 -8.744000434875488,-103.7030029296875 C6.4019999504089355,-103.7030029296875 22.18400001525879,-97.7959976196289 32.755001068115234,-92.83999633789062 C46.165000915527344,-86.5530014038086 57.35599899291992,-105.41100311279297 46.92900085449219,-116.40399932861328 C46.92900085449219,-116.40399932861328 47.2869987487793,-117.18800354003906 47.2869987487793,-117.18800354003906 C29.92300033569336,-125.5459976196289 11.380000114440918,-132.40499877929688 -8.767000198364258,-132.4040069580078 C-32.707000732421875,-132.4029998779297 -51.48400115966797,-121.88300323486328 -63.06399917602539,-101.99099731445312 C-63.077999114990234,-101.96700286865234 -63.09199905395508,-101.94000244140625 -63.10599899291992,-101.91600036621094 C-63.10599899291992,-101.91600036621094 -63.106998443603516,-101.91699981689453 -63.106998443603516,-101.91699981689453 C-63.106998443603516,-101.91699981689453 -63.11000061035156,-101.91100311279297 -63.11000061035156,-101.91100311279297 C-63.11000061035156,-101.91100311279297 -63.10900115966797,-101.91000366210938 -63.10900115966797,-101.91000366210938 C-78.1709976196289,-76.0530014038086 -78.12300109863281,-38.233001708984375 -62.96799850463867,4.598999977111816 C-50.43000030517578,40.03300094604492 -28.202999114990234,76.54100036621094 -4.949999809265137,99.90399932861328 C-4.949999809265137,99.90399932861328 -4.872000217437744,99.98300170898438 -4.872000217437744,99.98300170898438 C16.31599998474121,121.19100189208984 37.92599868774414,132.4010009765625 57.62099838256836,132.4040069580078 C57.62300109863281,132.4040069580078 57.625,132.4040069580078 57.62699890136719,132.4040069580078 C75.43099975585938,132.4040069580078 90.072998046875,123.22599792480469 99.9800033569336,105.8740005493164 C109.13899993896484,89.83100128173828 86.86499786376953,74.75299835205078 77.78700256347656,90.64700317382812z"/></g></g><g transform="matrix(0.4995502233505249,0.0000014706429283251055,0.0006478383438661695,0.5004487633705139,216.30140686035156,306.6943664550781)" opacity="1" style="display: none;"><g opacity="1" transform="matrix(1,0,0,1,0,0)"><path stroke-linecap="round" stroke-linejoin="round" fill-opacity="0" stroke="rgb(252,238,33)" stroke-opacity="1" stroke-width="15" d=" M-231.2729949951172,147.14100646972656 C-246.29100036621094,137.16600036621094 -260.4259948730469,128.2270050048828 -265.1000061035156,120.46600341796875"/></g></g><g transform="matrix(0.4942407011985779,-0.07200902700424194,0.07277599722146988,0.4952216148376465,131.60171508789062,323.6341247558594)" opacity="1" style="display: block;"><g opacity="1" transform="matrix(1,0,0,1,0,0)"><path fill="rgb(255,188,0)" fill-opacity="1" d=" M110.70500183105469,58.47100067138672 C135.2100067138672,9.84000015258789 150.1649932861328,-54.986000061035156 150.1649932861328,-126.17400360107422 C150.1649932861328,-126.17400360107422 -150.1649932861328,-126.17400360107422 -150.1649932861328,-126.17400360107422 C-150.1649932861328,-54.986000061035156 -135.2100067138672,9.84000015258789 -110.70500183105469,58.47100067138672 C-89.697998046875,100.16200256347656 -46.683998107910156,126.17400360107422 0,126.17400360107422 C0,126.17400360107422 0,126.17400360107422 0,126.17400360107422 C46.683998107910156,126.17400360107422 89.697998046875,100.16200256347656 110.70500183105469,58.47100067138672z"/><path stroke-linecap="round" stroke-linejoin="round" fill-opacity="0" stroke="rgb(210,118,1)" stroke-opacity="1" stroke-width="24" d=" M110.70500183105469,58.47100067138672 C135.2100067138672,9.84000015258789 150.1649932861328,-54.986000061035156 150.1649932861328,-126.17400360107422 C150.1649932861328,-126.17400360107422 -150.1649932861328,-126.17400360107422 -150.1649932861328,-126.17400360107422 C-150.1649932861328,-54.986000061035156 -135.2100067138672,9.84000015258789 -110.70500183105469,58.47100067138672 C-89.697998046875,100.16200256347656 -46.683998107910156,126.17400360107422 0,126.17400360107422 C0,126.17400360107422 0,126.17400360107422 0,126.17400360107422 C46.683998107910156,126.17400360107422 89.697998046875,100.16200256347656 110.70500183105469,58.47100067138672z"/></g></g><g transform="matrix(0.4942407011985779,-0.07200902700424194,0.07277599722146988,0.4952216148376465,78.92523193359375,314.18572998046875)" opacity="1" style="display: block;"><g opacity="1" transform="matrix(1,0,0,1,0,0)"><path stroke-linecap="round" stroke-linejoin="round" fill-opacity="0" stroke="rgb(255,226,106)" stroke-opacity="1" stroke-width="20" d=" M203.8470001220703,-42.36000061035156 C201.36199951171875,18.761999130249023 188.03900146484375,73.15399932861328 167.9429931640625,94.32099914550781"/></g></g><g transform="matrix(0.4942407011985779,-0.07200902700424194,0.07277599722146988,0.4952216148376465,179.3509979248047,299.5540466308594)" opacity="1" style="display: block;"><g opacity="1" transform="matrix(1,0,0,1,0,0)"><path stroke-linecap="round" stroke-linejoin="round" fill-opacity="0" stroke="rgb(255,255,255)" stroke-opacity="1" stroke-width="20" d=" M-173.22500610351562,90.72000122070312 C-187.98500061035156,63.76900100708008 -206.33999633789062,7.168000221252441 -206.81300354003906,-42.347999572753906"/></g></g><g transform="matrix(0.39539486169815063,-0.05760756507515907,0.07277599722146988,0.4952216148376465,101.94728088378906,327.9546813964844)" opacity="1" style="display: block;"><g opacity="1" transform="matrix(1,0,0,1,0,0)"><path stroke-linecap="round" stroke-linejoin="round" fill-opacity="0" stroke="rgb(210,119,1)" stroke-opacity="1" stroke-width="12" d=" M53.28200149536133,0 C53.28200149536133,29.427000045776367 29.427000045776367,53.28200149536133 0,53.28200149536133 C-29.427000045776367,53.28200149536133 -53.28200149536133,29.427000045776367 -53.28200149536133,0 C-53.28200149536133,-29.427000045776367 -29.427000045776367,-53.28200149536133 0,-53.28200149536133 C29.427000045776367,-53.28200149536133 53.28200149536133,-29.427000045776367 53.28200149536133,0z"/></g></g><g transform="matrix(0.4349343478679657,-0.0633683130145073,0.08005357533693314,0.5447437763214111,99.96251678466797,330.0035705566406)" opacity="1" style="display: block;"><g opacity="1" transform="matrix(1,0,0,1,0,0)"><path fill="rgb(210,119,1)" fill-opacity="1" d=" M9.175000190734863,-34.67900085449219 C9.175000190734863,-34.67900085449219 16.702999114990234,-19.427000045776367 16.702999114990234,-19.427000045776367 C16.702999114990234,-19.427000045776367 33.534000396728516,-16.981000900268555 33.534000396728516,-16.981000900268555 C37.270999908447266,-16.437999725341797 38.76300048828125,-11.847000122070312 36.058998107910156,-9.211000442504883 C36.058998107910156,-9.211000442504883 23.878999710083008,2.6610000133514404 23.878999710083008,2.6610000133514404 C23.878999710083008,2.6610000133514404 26.7549991607666,19.423999786376953 26.7549991607666,19.423999786376953 C27.39299964904785,23.145999908447266 23.486000061035156,25.983999252319336 20.143999099731445,24.226999282836914 C20.143999099731445,24.226999282836914 5.090000152587891,16.312000274658203 5.090000152587891,16.312000274658203 C5.090000152587891,16.312000274658203 -9.96399974822998,24.226999282836914 -9.96399974822998,24.226999282836914 C-13.305999755859375,25.983999252319336 -17.211999893188477,23.145999908447266 -16.573999404907227,19.423999786376953 C-16.573999404907227,19.423999786376953 -13.699000358581543,2.6610000133514404 -13.699000358581543,2.6610000133514404 C-13.699000358581543,2.6610000133514404 -25.878000259399414,-9.211000442504883 -25.878000259399414,-9.211000442504883 C-28.582000732421875,-11.847000122070312 -27.09000015258789,-16.437999725341797 -23.35300064086914,-16.981000900268555 C-23.35300064086914,-16.981000900268555 -6.521999835968018,-19.427000045776367 -6.521999835968018,-19.427000045776367 C-6.521999835968018,-19.427000045776367 1.0049999952316284,-34.67900085449219 1.0049999952316284,-34.67900085449219 C2.6760001182556152,-38.064998626708984 7.504000186920166,-38.064998626708984 9.175000190734863,-34.67900085449219z"/></g></g><g transform="matrix(0.4942407011985779,-0.07200902700424194,0.07277599722146988,0.4952216148376465,122.41929626464844,261.1500549316406)" opacity="1" style="display: block;"><g opacity="1" transform="matrix(1,0,0,1,0,0)"><path fill="rgb(140,80,2)" fill-opacity="1" d=" M150.1649932861328,0 C150.1649932861328,13.267999649047852 82.93399810791016,24.02400016784668 0,24.02400016784668 C-82.93399810791016,24.02400016784668 -150.1649932861328,13.267999649047852 -150.1649932861328,0 C-150.1649932861328,-13.267999649047852 -82.93399810791016,-24.02400016784668 0,-24.02400016784668 C82.93399810791016,-24.02400016784668 150.1649932861328,-13.267999649047852 150.1649932861328,0z"/><path stroke-linecap="round" stroke-linejoin="round" fill-opacity="0" stroke="rgb(210,119,1)" stroke-opacity="1" stroke-width="24" d=" M150.1649932861328,0 C150.1649932861328,13.267999649047852 82.93399810791016,24.02400016784668 0,24.02400016784668 C-82.93399810791016,24.02400016784668 -150.1649932861328,13.267999649047852 -150.1649932861328,0 C-150.1649932861328,-13.267999649047852 -82.93399810791016,-24.02400016784668 0,-24.02400016784668 C82.93399810791016,-24.02400016784668 150.1649932861328,-13.267999649047852 150.1649932861328,0z"/></g></g><g transform="matrix(0.4942407011985779,-0.07200902700424194,0.07277599722146988,0.4952216148376465,-40.978538513183594,231.95921325683594)" opacity="1" style="display: block;"><g opacity="1" transform="matrix(1,0,0,1,460.9339904785156,234.11700439453125)"><path stroke-linecap="round" stroke-linejoin="round" fill-opacity="0" stroke="rgb(210,119,1)" stroke-opacity="1" stroke-width="30" d=" M77.64099884033203,-104.03900146484375 C77.64099884033203,-104.03900146484375 77.64099884033203,-104.03900146484375 77.64099884033203,-104.03900146484375 C77.64099884033203,-104.03900146484375 77.64099884033203,-104.03900146484375 77.64099884033203,-104.03900146484375 C77.64099884033203,-104.04000091552734 77.63899993896484,-104.04000091552734 77.63899993896484,-104.04100036621094 C77.63899993896484,-104.04100036621094 77.63899993896484,-104.04100036621094 77.63899993896484,-104.04100036621094 C77.63899993896484,-104.04100036621094 77.63899993896484,-104.04100036621094 77.63899993896484,-104.04100036621094 C64.81300354003906,-122.55799865722656 44.77199935913086,-132.35800170898438 19.67300033569336,-132.3509979248047 C10.442824363708496,-132.34800720214844 0.6653862595558167,-131.0643768310547 -9.57625961303711,-128.51614379882812 C-18.38001823425293,-126.3262710571289 -16.14354705810547,-96.6573257446289 -10.48835563659668,-98.43473815917969 C-1.1817586421966553,-101.36089324951172 9.388065338134766,-103.6500015258789 19.673999786376953,-103.6500015258789 C61.305999755859375,-103.6510009765625 69.4540023803711,-64.77200317382812 58.132999420166016,-23.530000686645508 C49.507999420166016,7.890999794006348 29.21500015258789,44.05799865722656 6.425000190734863,68.60099792480469 C-14.627792358398438,91.27377319335938 -49.070316314697266,115.10452270507812 -69.08740234375,97.71250915527344 C-71.21562957763672,95.8634262084961 -94.53608703613281,112.73756408691406 -91.88776397705078,115.6020736694336 C-81.7165298461914,126.60332489013672 -68.55789184570312,132.35000610351562 -53.27000045776367,132.3509979248047 C-53.26900100708008,132.3509979248047 -53.26900100708008,132.3509979248047 -53.268001556396484,132.3509979248047 C-37.11600112915039,132.3509979248047 -19.323999404907227,125.95899963378906 -1.8320000171661377,113.84400177001953 C37.297000885009766,86.74299621582031 65.74700164794922,39.20399856567383 79.26699829101562,3.7249999046325684 C99.39299774169922,-49.0890007019043 91.97599792480469,-83.3239974975586 77.64099884033203,-104.03900146484375z"/><path fill="rgb(255,188,0)" fill-opacity="1" d=" M77.64099884033203,-104.03900146484375 C77.64099884033203,-104.03900146484375 77.64099884033203,-104.03900146484375 77.64099884033203,-104.03900146484375 C77.64099884033203,-104.03900146484375 77.64099884033203,-104.03900146484375 77.64099884033203,-104.03900146484375 C77.64099884033203,-104.04000091552734 77.63899993896484,-104.04000091552734 77.63899993896484,-104.04100036621094 C77.63899993896484,-104.04100036621094 77.63899993896484,-104.04100036621094 77.63899993896484,-104.04100036621094 C77.63899993896484,-104.04100036621094 77.63899993896484,-104.04100036621094 77.63899993896484,-104.04100036621094 C64.81300354003906,-122.55799865722656 44.77199935913086,-132.35800170898438 19.67300033569336,-132.3509979248047 C10.442824363708496,-132.34800720214844 0.6653862595558167,-131.0643768310547 -9.57625961303711,-128.51614379882812 C-18.38001823425293,-126.3262710571289 -16.14354705810547,-96.6573257446289 -10.48835563659668,-98.43473815917969 C-1.1817586421966553,-101.36089324951172 9.388065338134766,-103.6500015258789 19.673999786376953,-103.6500015258789 C61.305999755859375,-103.6510009765625 69.4540023803711,-64.77200317382812 58.132999420166016,-23.530000686645508 C49.507999420166016,7.890999794006348 29.21500015258789,44.05799865722656 6.425000190734863,68.60099792480469 C-14.627792358398438,91.27377319335938 -49.070316314697266,115.10452270507812 -69.08740234375,97.71250915527344 C-71.21562957763672,95.8634262084961 -94.53608703613281,112.73756408691406 -91.88776397705078,115.6020736694336 C-81.7165298461914,126.60332489013672 -68.55789184570312,132.35000610351562 -53.27000045776367,132.3509979248047 C-53.26900100708008,132.3509979248047 -53.26900100708008,132.3509979248047 -53.268001556396484,132.3509979248047 C-37.11600112915039,132.3509979248047 -19.323999404907227,125.95899963378906 -1.8320000171661377,113.84400177001953 C37.297000885009766,86.74299621582031 65.74700164794922,39.20399856567383 79.26699829101562,3.7249999046325684 C99.39299774169922,-49.0890007019043 91.97599792480469,-83.3239974975586 77.64099884033203,-104.03900146484375z"/><path stroke-linecap="round" stroke-linejoin="round" fill-opacity="0" stroke="rgb(210,119,1)" stroke-opacity="1" stroke-width="10" d=" M77.64099884033203,-104.03900146484375 C77.64099884033203,-104.03900146484375 77.64099884033203,-104.03900146484375 77.64099884033203,-104.03900146484375 C77.64099884033203,-104.03900146484375 77.64099884033203,-104.03900146484375 77.64099884033203,-104.03900146484375 C77.64099884033203,-104.04000091552734 77.63899993896484,-104.04000091552734 77.63899993896484,-104.04100036621094 C77.63899993896484,-104.04100036621094 77.63899993896484,-104.04100036621094 77.63899993896484,-104.04100036621094 C77.63899993896484,-104.04100036621094 77.63899993896484,-104.04100036621094 77.63899993896484,-104.04100036621094 C64.81300354003906,-122.55799865722656 44.77199935913086,-132.35800170898438 19.67300033569336,-132.3509979248047 C10.442824363708496,-132.34800720214844 0.6653862595558167,-131.0643768310547 -9.57625961303711,-128.51614379882812 C-18.38001823425293,-126.3262710571289 -16.14354705810547,-96.6573257446289 -10.48835563659668,-98.43473815917969 C-1.1817586421966553,-101.36089324951172 9.388065338134766,-103.6500015258789 19.673999786376953,-103.6500015258789 C61.305999755859375,-103.6510009765625 69.4540023803711,-64.77200317382812 58.132999420166016,-23.530000686645508 C49.507999420166016,7.890999794006348 29.21500015258789,44.05799865722656 6.425000190734863,68.60099792480469 C-14.627792358398438,91.27377319335938 -49.070316314697266,115.10452270507812 -69.08740234375,97.71250915527344 C-71.21562957763672,95.8634262084961 -94.53608703613281,112.73756408691406 -91.88776397705078,115.6020736694336 C-81.7165298461914,126.60332489013672 -68.55789184570312,132.35000610351562 -53.27000045776367,132.3509979248047 C-53.26900100708008,132.3509979248047 -53.26900100708008,132.3509979248047 -53.268001556396484,132.3509979248047 C-37.11600112915039,132.3509979248047 -19.323999404907227,125.95899963378906 -1.8320000171661377,113.84400177001953 C37.297000885009766,86.74299621582031 65.74700164794922,39.20399856567383 79.26699829101562,3.7249999046325684 C99.39299774169922,-49.0890007019043 91.97599792480469,-83.3239974975586 77.64099884033203,-104.03900146484375z"/></g></g><g transform="matrix(0.4942407011985779,-0.07200902700424194,0.07277599722146988,0.4952216148376465,179.35105895996094,299.5545349121094)" opacity="1" style="display: none;"><g opacity="1" transform="matrix(1,0,0,1,0,0)"><path stroke-linecap="round" stroke-linejoin="round" fill-opacity="0" stroke="rgb(252,238,33)" stroke-opacity="1" stroke-width="15" d=" M123.23200225830078,-13.907999992370605 C123.8219985961914,-48.7400016784668 112.01699829101562,-75.1520004272461 80.98999786376953,-80.46099853515625"/></g></g><g transform="matrix(1.1149489879608154,0,0,1.1149489879608154,477.35369873046875,283.81207275390625)" opacity="1" style="display: none;"><g opacity="1" transform="matrix(1,0,0,1,0,0)"><path fill="rgb(255,255,255)" fill-opacity="1" d=" M0,-29.48455047607422 C0,-29.48455047607422 3.4637696743011475,-3.4637696743011475 3.4637696743011475,-3.4637696743011475 C3.4637696743011475,-3.4637696743011475 29.48455047607422,0 29.48455047607422,0 C29.48455047607422,0 3.4637696743011475,3.4637696743011475 3.4637696743011475,3.4637696743011475 C3.4637696743011475,3.4637696743011475 0,29.48455047607422 0,29.48455047607422 C0,29.48455047607422 -3.4637696743011475,3.4637696743011475 -3.4637696743011475,3.4637696743011475 C-3.4637696743011475,3.4637696743011475 -29.48455047607422,0 -29.48455047607422,0 C-29.48455047607422,0 -3.4637696743011475,-3.4637696743011475 -3.4637696743011475,-3.4637696743011475 C-3.4637696743011475,-3.4637696743011475 0,-29.48455047607422 0,-29.48455047607422z"/><path stroke-linecap="round" stroke-linejoin="round" fill-opacity="0" stroke="rgb(255,255,255)" stroke-opacity="1" stroke-width="4.152765661198943" d=" M0,-29.48455047607422 C0,-29.48455047607422 3.4637696743011475,-3.4637696743011475 3.4637696743011475,-3.4637696743011475 C3.4637696743011475,-3.4637696743011475 29.48455047607422,0 29.48455047607422,0 C29.48455047607422,0 3.4637696743011475,3.4637696743011475 3.4637696743011475,3.4637696743011475 C3.4637696743011475,3.4637696743011475 0,29.48455047607422 0,29.48455047607422 C0,29.48455047607422 -3.4637696743011475,3.4637696743011475 -3.4637696743011475,3.4637696743011475 C-3.4637696743011475,3.4637696743011475 -29.48455047607422,0 -29.48455047607422,0 C-29.48455047607422,0 -3.4637696743011475,-3.4637696743011475 -3.4637696743011475,-3.4637696743011475 C-3.4637696743011475,-3.4637696743011475 0,-29.48455047607422 0,-29.48455047607422z"/></g></g><g transform="matrix(0.5996451377868652,0.00027706101536750793,0.0008011445170268416,0.5992679595947266,191.55751037597656,462.3628845214844)" opacity="1" style="display: none;"><g opacity="1" transform="matrix(1,0,0,1,0,0)"><path fill="rgb(252,238,33)" fill-opacity="1" d=" M0,-30.725658416748047 C0,-30.725658416748047 4.04301643371582,-4.04301643371582 4.04301643371582,-4.04301643371582 C4.04301643371582,-4.04301643371582 30.725658416748047,0 30.725658416748047,0 C30.725658416748047,0 4.04301643371582,4.04301643371582 4.04301643371582,4.04301643371582 C4.04301643371582,4.04301643371582 0,30.725658416748047 0,30.725658416748047 C0,30.725658416748047 -4.04301643371582,4.04301643371582 -4.04301643371582,4.04301643371582 C-4.04301643371582,4.04301643371582 -30.725658416748047,0 -30.725658416748047,0 C-30.725658416748047,0 -4.04301643371582,-4.04301643371582 -4.04301643371582,-4.04301643371582 C-4.04301643371582,-4.04301643371582 0,-30.725658416748047 0,-30.725658416748047z"/><path stroke-linecap="round" stroke-linejoin="round" fill-opacity="0" stroke="rgb(252,238,33)" stroke-opacity="1" stroke-width="4.5597305074473145" d=" M0,-30.725658416748047 C0,-30.725658416748047 4.04301643371582,-4.04301643371582 4.04301643371582,-4.04301643371582 C4.04301643371582,-4.04301643371582 30.725658416748047,0 30.725658416748047,0 C30.725658416748047,0 4.04301643371582,4.04301643371582 4.04301643371582,4.04301643371582 C4.04301643371582,4.04301643371582 0,30.725658416748047 0,30.725658416748047 C0,30.725658416748047 -4.04301643371582,4.04301643371582 -4.04301643371582,4.04301643371582 C-4.04301643371582,4.04301643371582 -30.725658416748047,0 -30.725658416748047,0 C-30.725658416748047,0 -4.04301643371582,-4.04301643371582 -4.04301643371582,-4.04301643371582 C-4.04301643371582,-4.04301643371582 0,-30.725658416748047 0,-30.725658416748047z"/></g></g></g></g></svg>